<svg class="diagram-root" style="background: white" xmlns="http://www.w3.org/2000/svg" xmlns:xlink="http://www.w3.org/1999/xlink"><style>.diagram-root { font-family: "Helvetica Neue", sans-serif; font-size: 12px; } .t { overflow: visible; } .t-bg { y: 40; fill: white; stroke: #323c46; stroke-width: 2; } .th { fill: white; stroke: #323c46; stroke-width: 2; } .tht { fill: #323c46; font-size: 14px; font-weight: bold; } .tf { fill: #323c46; overflow: visible; } .tf.pk { fill: #323c46; font-weight: bold; } .tf.fk { font-weight: bold; } .ty { fill: #323c46; font-weight: normal; text-anchor: end; } .r { fill: transparent; stroke: #4e4e4e; stroke-width: 1; } .l { stroke: 1; } .i { fill: #a0a0a0; stroke: #a0a0a0; } .i.ix { fill: #a0a0a0; stroke: #000; } .fa { fill: transparent; overflow: visible; } .fa .bg.hover { fill: #f3f3f3; } .c { cy: 12; r: 4; stroke: #424242; fill: #424242; } .hr { fill: transparent; stroke: #323c46; stroke-opacity: 0.035; stroke-width: 13; } .dc { stroke: #fa5a3c; fill: #fa5a3c; } .x { stroke: white; stroke-width: 1; } .hl .th { fill: #323c46; } .hl .tht { fill: white; } .fhl .bg { fill: #efefef; } .fhls .bg {  } .r.hl { stroke: black; } .dim { opacity: 0.25; }</style><g class="drawing-wrapper" transform="translate(-28.001111111111136, -63.33333333333334) scale(1,1)"><g class="rs"><path d="M 191.36 328.11 m -1, 0 a 1,1 0 1,0 2,0 a 1,1 0 1,0 -2,0 M 191.36 328.11 m -0.5, 0 a 0.5,0.5 0 1,0 1,0 a 0.5,0.5 0 1,0 -1,0  M191.36 328.11 L191.36 328.11 203.36 328.11 M 191.36 334.11 m -1, 0 a 1,1 0 1,0 2,0 a 1,1 0 1,0 -2,0 M 191.36 334.11 m -0.5, 0 a 0.5,0.5 0 1,0 1,0 a 0.5,0.5 0 1,0 -1,0  M191.36 334.11 L191.36 334.11 198.36 328.11 191.36 322.11 M 191.36 322.11 m -1, 0 a 1,1 0 1,0 2,0 a 1,1 0 1,0 -2,0 M 191.36 322.11 m -0.5, 0 a 0.5,0.5 0 1,0 1,0 a 0.5,0.5 0 1,0 -1,0  M203.36 328.11 Q 244.25 328.11, 285.13 239.22 T 366.89 150.32999999999998 M 378.89 150.32999999999998 m -1, 0 a 1,1 0 1,0 2,0 a 1,1 0 1,0 -2,0 M 378.89 150.32999999999998 m -0.5, 0 a 0.5,0.5 0 1,0 1,0 a 0.5,0.5 0 1,0 -1,0  M378.89 150.32999999999998 L378.89 150.32999999999998 366.89 150.32999999999998 M372.89 156.32999999999998 L372.89 156.32999999999998 372.89 144.32999999999998" id="h2083318591" class="r"></path><path d="M 378.89 350.33 m -1, 0 a 1,1 0 1,0 2,0 a 1,1 0 1,0 -2,0 M 378.89 350.33 m -0.5, 0 a 0.5,0.5 0 1,0 1,0 a 0.5,0.5 0 1,0 -1,0  M378.89 350.33 L378.89 350.33 366.89 350.33 M 378.89 356.33 m -1, 0 a 1,1 0 1,0 2,0 a 1,1 0 1,0 -2,0 M 378.89 356.33 m -0.5, 0 a 0.5,0.5 0 1,0 1,0 a 0.5,0.5 0 1,0 -1,0  M378.89 356.33 L378.89 356.33 371.89 350.33 378.89 344.33 M 378.89 344.33 m -1, 0 a 1,1 0 1,0 2,0 a 1,1 0 1,0 -2,0 M 378.89 344.33 m -0.5, 0 a 0.5,0.5 0 1,0 1,0 a 0.5,0.5 0 1,0 -1,0  M366.89 350.33 Q 326.01 350.33, 285.13 351.72 T 203.36 353.11 M 191.36 353.11 m -1, 0 a 1,1 0 1,0 2,0 a 1,1 0 1,0 -2,0 M 191.36 353.11 m -0.5, 0 a 0.5,0.5 0 1,0 1,0 a 0.5,0.5 0 1,0 -1,0  M191.36 353.11 L191.36 353.11 203.36 353.11 M197.36 359.11 L197.36 359.11 197.36 347.11" id="h3753212148" class="r"></path><path d="M 401.66 465.89 m -1, 0 a 1,1 0 1,0 2,0 a 1,1 0 1,0 -2,0 M 401.66 465.89 m -0.5, 0 a 0.5,0.5 0 1,0 1,0 a 0.5,0.5 0 1,0 -1,0  M401.66 465.89 L401.66 465.89 389.66 465.89 M 401.66 471.89 m -1, 0 a 1,1 0 1,0 2,0 a 1,1 0 1,0 -2,0 M 401.66 471.89 m -0.5, 0 a 0.5,0.5 0 1,0 1,0 a 0.5,0.5 0 1,0 -1,0  M401.66 471.89 L401.66 471.89 394.66 465.89 401.66 459.89 M 401.66 459.89 m -1, 0 a 1,1 0 1,0 2,0 a 1,1 0 1,0 -2,0 M 401.66 459.89 m -0.5, 0 a 0.5,0.5 0 1,0 1,0 a 0.5,0.5 0 1,0 -1,0  M389.66 465.89 Q 343.09 465.89, 296.51 397 T 203.36 328.11 M 191.36 328.11 m -1, 0 a 1,1 0 1,0 2,0 a 1,1 0 1,0 -2,0 M 191.36 328.11 m -0.5, 0 a 0.5,0.5 0 1,0 1,0 a 0.5,0.5 0 1,0 -1,0  M191.36 328.11 L191.36 328.11 203.36 328.11 M197.36 334.11 L197.36 334.11 197.36 322.11" id="h156000343" class="r"></path></g><g class="hrs"></g><g class="ts"><svg width="141.36" height="100" x="50" y="271.11" id="h1734796370" class="t"><rect height="40" width="141.36" class="th"></rect><text x="13" y="25" class="tht">state_index</text><rect height="60" width="141.36" class="t-bg"></rect><text x="13" y="61" class="tf fk">state<tspan x="128.36" class="ty">VARCHAR</tspan></text><text x="13" y="86" class="tf pk">state_num<tspan x="128.36" class="ty">INT</tspan></text><path d="M7,14A2,2 0 0,1 5,12A2,2 0 0,1 7,10A2,2 0 0,1 9,12A2,2 0 0,1 7,14M12.65,10C11.83,7.67 9.61,6 7, 6A6, 6 0 0, 0 1, 12A6, 6 0 0, 0 7, 18C9.61, 18 11.83, 16.33 12.65, 14H17V18H21V14H23V10H12.65Z" class="i pk" transform="translate(89.02992187500001, 73) scale(0.65)"></path></svg><svg width="306.85" height="275" x="378.89" y="93.33" id="h778684570" class="t"><rect height="40" width="306.85" class="th"></rect><text x="13" y="25" class="tht">bach_data</text><rect height="235" width="306.85" class="t-bg"></rect><text x="13" y="61" class="tf fk">state<tspan x="293.85" class="ty">VARCHAR</tspan></text><text x="13" y="86" class="tf">sex<tspan x="293.85" class="ty">VARCHAR</tspan></text><text x="13" y="111" class="tf">age_group<tspan x="293.85" class="ty">VARCHAR</tspan></text><text x="13" y="136" class="tf">science_and_engineering<tspan x="293.85" class="ty">INT</tspan></text><text x="13" y="161" class="tf">science_and_engineering_and_related_fields<tspan x="293.85" class="ty">INT</tspan></text><text x="13" y="186" class="tf">business<tspan x="293.85" class="ty">INT</tspan></text><text x="13" y="211" class="tf">education<tspan x="293.85" class="ty">INT</tspan></text><text x="13" y="236" class="tf">arts_humanities_and_others<tspan x="293.85" class="ty">INT</tspan></text><text x="13" y="261" class="tf fk">state_num<tspan x="293.85" class="ty">INT</tspan></text></svg><svg width="175.16" height="125" x="401.66" y="408.89" id="h2465591411" class="t"><rect height="40" width="175.16" class="th"></rect><text x="13" y="25" class="tht">university</text><rect height="85" width="175.16" class="t-bg"></rect><text x="13" y="61" class="tf fk">state<tspan x="162.16" class="ty">VARCHAR</tspan></text><text x="13" y="86" class="tf">school_name<tspan x="162.16" class="ty">VARCHAR</tspan></text><text x="13" y="111" class="tf">url<tspan x="162.16" class="ty">VARCHAR</tspan></text></svg></g></g><text class="qdbd-link" x="10" y="20">www.quickdatabasediagrams.com</text></svg>